<svg fill="none" height="20" viewBox="0 0 20 20" width="20" xmlns="http://www.w3.org/2000/svg"><path clip-rule="evenodd" d="m11.4892 3.17094c-.379-1.56125-2.5994-1.56125-2.97842 0-.24484 1.00855-1.40033 1.48717-2.28662.94715-1.37198-.83597-2.94204.73409-2.10607 2.10607.54002.88629.0614 2.04177-.94715 2.28662-1.56125.37902-1.56125 2.59942 0 2.97842 1.00855.2449 1.48717 1.4004.94715 2.2866-.83597 1.372.73409 2.9421 2.10608 2.1061.88628-.54 2.04177-.0614 2.28661.9472.37902 1.5612 2.59942 1.5612 2.97842 0 .2449-1.0086 1.4004-1.4872 2.2866-.9472 1.372.836 2.9421-.7341 2.1061-2.1061-.54-.8862-.0614-2.0417.9472-2.2866 1.5612-.379 1.5612-2.5994 0-2.97842-1.0086-.24485-1.4872-1.40033-.9472-2.28662.836-1.37198-.7341-2.94204-2.1061-2.10607-.8862.54002-2.0417.0614-2.2866-.94715zm-1.4892 9.82906c1.6569 0 3-1.3431 3-3 0-1.65685-1.3431-3-3-3-1.65685 0-3 1.34315-3 3 0 1.6569 1.34315 3 3 3z" fill="#4a5568" fill-rule="evenodd"/></svg>