<svg fill="none" height="20" viewBox="0 0 20 20" width="20" xmlns="http://www.w3.org/2000/svg"><path clip-rule="evenodd" d="m9 2c-.37877 0-.72503.214-.89443.55279l-.7236 1.44721h-3.38197c-.55228 0-1 .44772-1 1s.44772 1 1 1v10c0 1.1046.89543 2 2 2h8c1.1046 0 2-.8954 2-2v-10c.5523 0 1-.44772 1-1s-.4477-1-1-1h-3.382l-.7236-1.44721c-.1694-.33879-.5156-.55279-.8944-.55279zm-2 6c0-.55228.44772-1 1-1s1 .44772 1 1v6c0 .5523-.44772 1-1 1s-1-.4477-1-1zm5-1c-.5523 0-1 .44772-1 1v6c0 .5523.4477 1 1 1s1-.4477 1-1v-6c0-.55228-.4477-1-1-1z" fill="#4a5568" fill-rule="evenodd"/></svg>